<svg id="Layer_1" data-name="Layer 1" xmlns="http://www.w3.org/2000/svg" viewBox="0 0 122.88 116.61"><defs><style>.cls-1{fill:gray;}.cls-2{fill:#fff;}.cls-2,.cls-3,.cls-4{fill-rule:evenodd;}.cls-3{fill:#ef4136;}.cls-4{fill:#c72b20;}.cls-5{fill:#1a1a1a;}</style></defs><title>august</title><path class="cls-1" d="M111.36,116.61H11.52A11.56,11.56,0,0,1,0,105.09V40H122.88v65.07a11.54,11.54,0,0,1-11.52,11.52Z"/><path class="cls-2" d="M12.75,112.92h97.38a9.09,9.09,0,0,0,9.06-9.06V44.94H3.69v58.92a9.08,9.08,0,0,0,9.06,9.06Z"/><path class="cls-3" d="M11.52,6.67h99.84a11.57,11.57,0,0,1,11.52,11.52V44.94H0V18.19A11.56,11.56,0,0,1,11.52,6.67Zm24.79,9.75A9.32,9.32,0,1,1,27,25.73a9.31,9.31,0,0,1,9.31-9.31Zm49.79,0a9.32,9.32,0,1,1-9.31,9.31,9.31,9.31,0,0,1,9.31-9.31Z"/><path class="cls-4" d="M86.1,14.63a11.11,11.11,0,1,1-7.85,3.26l.11-.1a11.06,11.06,0,0,1,7.74-3.16Zm0,1.79a9.32,9.32,0,1,1-9.31,9.31,9.31,9.31,0,0,1,9.31-9.31Z"/><path class="cls-4" d="M36.31,14.63a11.11,11.11,0,1,1-7.85,3.26l.11-.1a11.08,11.08,0,0,1,7.74-3.16Zm0,1.79A9.32,9.32,0,1,1,27,25.73a9.31,9.31,0,0,1,9.31-9.31Z"/><path class="cls-5" d="M80.54,4.56C80.54,2,83,0,86.1,0s5.56,2,5.56,4.56V25.77c0,2.51-2.48,4.56-5.56,4.56s-5.56-2-5.56-4.56V4.56Z"/><path class="cls-5" d="M30.75,4.56C30.75,2,33.24,0,36.31,0s5.56,2,5.56,4.56V25.77c0,2.51-2.48,4.56-5.56,4.56s-5.56-2-5.56-4.56V4.56Z"/><path class="cls-5" d="M29.63,93H20.11l7.31-28.18H41.35L48.66,93H39.14l-1-4.46H30.67l-1,4.46ZM34.14,73.5l-1.85,7.89h4.15L34.63,73.5Zm25.59-8.66V86h3.2a4.58,4.58,0,0,0,2.35-.43c.42-.28.63-.94.63-2V64.84h9V80.67a31.07,31.07,0,0,1-.5,6.18,9,9,0,0,1-1.85,4,7,7,0,0,1-3.69,2.26,24.2,24.2,0,0,1-6.09.63,23.87,23.87,0,0,1-6.07-.63,7,7,0,0,1-3.68-2.26,9,9,0,0,1-1.84-4,31.07,31.07,0,0,1-.5-6.18V64.84ZM94.2,84.73V83.51H91.91v-6.9h10.86V91.67a31.12,31.12,0,0,1-11.09,2Q84,93.7,81.08,90A11.55,11.55,0,0,1,79,85.4a30.17,30.17,0,0,1-.59-6.47A29.15,29.15,0,0,1,79,72.48,11.13,11.13,0,0,1,81.22,68q3-3.8,11.5-3.79a37.52,37.52,0,0,1,4.57.36,22.65,22.65,0,0,1,4.13.81l-1.35,6.91a38.36,38.36,0,0,0-6.61-.64,13.21,13.21,0,0,0-4.15.45,1.77,1.77,0,0,0-1.19,1.81V86.62h3a6,6,0,0,0,2.36-.34c.5-.23.74-.74.74-1.55Z"/></svg>