<svg id="Layer_1" data-name="Layer 1" xmlns="http://www.w3.org/2000/svg" viewBox="0 0 122.88 116.61"><defs><style>.cls-1{fill:gray;}.cls-2{fill:#fff;}.cls-2,.cls-3,.cls-4{fill-rule:evenodd;}.cls-3{fill:#ef4136;}.cls-4{fill:#c72b20;}.cls-5{fill:#1a1a1a;}</style></defs><title>december</title><path class="cls-1" d="M111.36,116.61H11.52A11.57,11.57,0,0,1,0,105.09V40H122.88v65.07a11.57,11.57,0,0,1-11.52,11.52Z"/><path class="cls-2" d="M12.75,112.92h97.38a9.1,9.1,0,0,0,9.06-9.06V44.94H3.69v58.92a9.08,9.08,0,0,0,9.06,9.06Z"/><path class="cls-3" d="M11.52,6.67h99.84a11.57,11.57,0,0,1,11.52,11.52V44.94H0V18.19A11.56,11.56,0,0,1,11.52,6.67Zm24.79,9.75A9.31,9.31,0,1,1,27,25.73a9.31,9.31,0,0,1,9.31-9.31Zm49.79,0a9.31,9.31,0,1,1-9.31,9.31,9.31,9.31,0,0,1,9.31-9.31Z"/><path class="cls-4" d="M86.1,14.63a11.1,11.1,0,1,1-7.85,3.25l.11-.1a11.09,11.09,0,0,1,7.74-3.15Zm0,1.79a9.31,9.31,0,1,1-9.31,9.31,9.31,9.31,0,0,1,9.31-9.31Z"/><path class="cls-4" d="M36.31,14.63a11.1,11.1,0,1,1-7.85,3.25l.11-.1a11.09,11.09,0,0,1,7.74-3.15Zm0,1.79A9.31,9.31,0,1,1,27,25.73a9.31,9.31,0,0,1,9.31-9.31Z"/><path class="cls-5" d="M80.54,4.56C80.54,2,83,0,86.1,0s5.56,2,5.56,4.56V25.77c0,2.51-2.49,4.55-5.56,4.55s-5.56-2-5.56-4.55V4.56Z"/><path class="cls-5" d="M30.75,4.56C30.75,2,33.24,0,36.31,0s5.56,2,5.56,4.56V25.77c0,2.51-2.48,4.55-5.56,4.55s-5.56-2-5.56-4.55V4.56Z"/><path class="cls-5" d="M23.9,93V64.84H36.53q7.62,0,10.46,3.24t2.84,10.85q0,7.59-2.84,10.85T36.53,93Zm12.76-21H32.92V85.8h3.74a6.3,6.3,0,0,0,2.68-.42c.56-.29.84-.94.84-2v-9c0-1-.28-1.67-.84-2a6.12,6.12,0,0,0-2.68-.43ZM72.38,82.38h-9V85.8h11V93H54.34V64.84H74.18l-1.13,7.21H63.36v3.79h9v6.54ZM98.31,85,99,92.53a18.79,18.79,0,0,1-7.12,1.17A21.2,21.2,0,0,1,85,92.79,8.37,8.37,0,0,1,80.9,90a11.5,11.5,0,0,1-2.07-4.55A29.41,29.41,0,0,1,78.24,79a29.73,29.73,0,0,1,.59-6.47A11.5,11.5,0,0,1,80.9,67.9q2.89-3.74,10.6-3.74a27.86,27.86,0,0,1,4,.34,14,14,0,0,1,3.45.83l-1.35,6.9a25.73,25.73,0,0,0-5.37-.63,8.75,8.75,0,0,0-3.38.45,1.8,1.8,0,0,0-.95,1.8V85.67A17.79,17.79,0,0,0,91.5,86,19.94,19.94,0,0,0,98.31,85Z"/></svg>