<svg id="Layer_1" data-name="Layer 1" xmlns="http://www.w3.org/2000/svg" viewBox="0 0 122.88 116.61"><defs><style>.cls-1{fill:gray;}.cls-2{fill:#fff;}.cls-2,.cls-3,.cls-4{fill-rule:evenodd;}.cls-3{fill:#ef4136;}.cls-4{fill:#c72b20;}.cls-5{fill:#1a1a1a;}</style></defs><title>february</title><path class="cls-1" d="M111.36,116.61H11.52A11.57,11.57,0,0,1,0,105.09V40H122.88v65.07a11.57,11.57,0,0,1-11.52,11.52Z"/><path class="cls-2" d="M12.75,112.92h97.38a9.1,9.1,0,0,0,9.06-9.06V44.94H3.69v58.92a9.08,9.08,0,0,0,9.06,9.06Z"/><path class="cls-3" d="M11.52,6.67h99.84a11.57,11.57,0,0,1,11.52,11.52V44.94H0V18.19A11.56,11.56,0,0,1,11.52,6.67Zm24.79,9.75A9.31,9.31,0,1,1,27,25.73a9.31,9.31,0,0,1,9.31-9.31Zm49.79,0a9.31,9.31,0,1,1-9.31,9.31,9.31,9.31,0,0,1,9.31-9.31Z"/><path class="cls-4" d="M86.1,14.63a11.1,11.1,0,1,1-7.85,3.25l.11-.1a11.09,11.09,0,0,1,7.74-3.15Zm0,1.79a9.31,9.31,0,1,1-9.31,9.31,9.31,9.31,0,0,1,9.31-9.31Z"/><path class="cls-4" d="M36.31,14.63a11.1,11.1,0,1,1-7.85,3.25l.11-.1a11.09,11.09,0,0,1,7.74-3.15Zm0,1.79A9.31,9.31,0,1,1,27,25.73a9.31,9.31,0,0,1,9.31-9.31Z"/><path class="cls-5" d="M80.54,4.56C80.54,2,83,0,86.1,0s5.56,2,5.56,4.56V25.77c0,2.51-2.49,4.55-5.56,4.55s-5.56-2-5.56-4.55V4.56Z"/><path class="cls-5" d="M30.75,4.56C30.75,2,33.24,0,36.31,0s5.56,2,5.56,4.56V25.77c0,2.51-2.48,4.55-5.56,4.55s-5.56-2-5.56-4.55V4.56Z"/><path class="cls-5" d="M42.79,82.56H35.13V93h-9V64.84H44.6l-1.13,7.21H35.13v3.79h7.66v6.72Zm23.57-.18h-9V85.8h11V93H48.32V64.84H68.16L67,72.05H57.34v3.79h9v6.54ZM73.24,93V64.84H87.85q4.05,0,5.79,1.57A5.91,5.91,0,0,1,95.38,71a8.31,8.31,0,0,1-1.11,4.67,5.06,5.06,0,0,1-3,2.15v.26q5.45.94,5.45,7.45A7.89,7.89,0,0,1,95,91q-1.8,2.06-5.55,2ZM85.77,81.79H82.25v4.6h3.48c1.26,0,1.89-.77,1.89-2.3s-.62-2.3-1.85-2.3ZM85.09,71H82.25v4.2h2.8c1.14,0,1.72-.7,1.72-2.1S86.21,71,85.09,71Z"/></svg>