<svg id="Layer_1" data-name="Layer 1" xmlns="http://www.w3.org/2000/svg" viewBox="0 0 122.88 116.61"><defs><style>.cls-1{fill:gray;}.cls-2{fill:#fff;}.cls-2,.cls-3,.cls-4{fill-rule:evenodd;}.cls-3{fill:#ef4136;}.cls-4{fill:#c72b20;}.cls-5{fill:#1a1a1a;}</style></defs><title>june</title><path class="cls-1" d="M111.36,116.61H11.52A11.56,11.56,0,0,1,0,105.09V40H122.88v65.07a11.54,11.54,0,0,1-11.52,11.52Z"/><path class="cls-2" d="M12.75,112.92h97.38a9.09,9.09,0,0,0,9.06-9.06V44.94H3.69v58.92a9.08,9.08,0,0,0,9.06,9.06Z"/><path class="cls-3" d="M11.52,6.67h99.84a11.57,11.57,0,0,1,11.52,11.52V44.94H0V18.19A11.56,11.56,0,0,1,11.52,6.67Zm24.79,9.75A9.32,9.32,0,1,1,27,25.73a9.31,9.31,0,0,1,9.31-9.31Zm49.79,0a9.32,9.32,0,1,1-9.31,9.31,9.31,9.31,0,0,1,9.31-9.31Z"/><path class="cls-4" d="M86.1,14.63a11.11,11.11,0,1,1-7.85,3.26l.11-.1a11.06,11.06,0,0,1,7.74-3.16Zm0,1.79a9.32,9.32,0,1,1-9.31,9.31,9.31,9.31,0,0,1,9.31-9.31Z"/><path class="cls-4" d="M36.31,14.63a11.11,11.11,0,1,1-7.85,3.26l.11-.1a11.08,11.08,0,0,1,7.74-3.16Zm0,1.79A9.32,9.32,0,1,1,27,25.73a9.31,9.31,0,0,1,9.31-9.31Z"/><path class="cls-5" d="M80.54,4.56C80.54,2,83,0,86.1,0s5.56,2,5.56,4.56V25.77c0,2.51-2.48,4.56-5.56,4.56s-5.56-2-5.56-4.56V4.56Z"/><path class="cls-5" d="M30.75,4.56C30.75,2,33.24,0,36.31,0s5.56,2,5.56,4.56V25.77c0,2.51-2.48,4.56-5.56,4.56s-5.56-2-5.56-4.56V4.56Z"/><path class="cls-5" d="M25.75,92.69l-.91-7.22h3.75a2.78,2.78,0,0,0,1.78-.38,1.34,1.34,0,0,0,.38-1V71.72H27V64.5H39.77V85.25A7.7,7.7,0,0,1,38,90.79a6.81,6.81,0,0,1-5.18,1.9ZM53,64.5V85.65h3.2a4.48,4.48,0,0,0,2.35-.43c.42-.28.63-.94.63-2V64.5h9V80.33a31,31,0,0,1-.5,6.18,9.05,9.05,0,0,1-1.84,4,7.09,7.09,0,0,1-3.7,2.25,24.15,24.15,0,0,1-6.09.63A23.87,23.87,0,0,1,50,92.73a7,7,0,0,1-3.67-2.25,9.07,9.07,0,0,1-1.85-4,31,31,0,0,1-.5-6.18V64.5Zm36.6,28.19-6.9-10a4.61,4.61,0,0,1-.45-2.16H82V92.69H73V64.5h8.48l6.9,10a4.76,4.76,0,0,1,.45,2.17H89V64.5h9V92.69Z"/></svg>