<svg id="Layer_1" data-name="Layer 1" xmlns="http://www.w3.org/2000/svg" viewBox="0 0 122.88 116.61"><defs><style>.cls-1{fill:gray;}.cls-2{fill:#fff;}.cls-2,.cls-3,.cls-4{fill-rule:evenodd;}.cls-3{fill:#ef4136;}.cls-4{fill:#c72b20;}.cls-5{fill:#1a1a1a;}</style></defs><title>march</title><path class="cls-1" d="M111.36,116.61H11.52A11.56,11.56,0,0,1,0,105.09V40H122.88v65.07a11.54,11.54,0,0,1-11.52,11.52Z"/><path class="cls-2" d="M12.75,112.92h97.38a9.09,9.09,0,0,0,9.06-9.06V44.94H3.69v58.92a9.08,9.08,0,0,0,9.06,9.06Z"/><path class="cls-3" d="M11.52,6.67h99.84a11.57,11.57,0,0,1,11.52,11.52V44.94H0V18.19A11.56,11.56,0,0,1,11.52,6.67Zm24.79,9.75A9.32,9.32,0,1,1,27,25.73a9.31,9.31,0,0,1,9.31-9.31Zm49.79,0a9.32,9.32,0,1,1-9.31,9.31,9.31,9.31,0,0,1,9.31-9.31Z"/><path class="cls-4" d="M86.1,14.63a11.11,11.11,0,1,1-7.85,3.26l.11-.1a11.06,11.06,0,0,1,7.74-3.16Zm0,1.79a9.32,9.32,0,1,1-9.31,9.31,9.31,9.31,0,0,1,9.31-9.31Z"/><path class="cls-4" d="M36.31,14.63a11.11,11.11,0,1,1-7.85,3.26l.11-.1a11.08,11.08,0,0,1,7.74-3.16Zm0,1.79A9.32,9.32,0,1,1,27,25.73a9.31,9.31,0,0,1,9.31-9.31Z"/><path class="cls-5" d="M80.54,4.56C80.54,2,83,0,86.1,0s5.56,2,5.56,4.56V25.77c0,2.51-2.48,4.56-5.56,4.56s-5.56-2-5.56-4.56V4.56Z"/><path class="cls-5" d="M30.75,4.56C30.75,2,33.24,0,36.31,0s5.56,2,5.56,4.56V25.77c0,2.51-2.48,4.56-5.56,4.56s-5.56-2-5.56-4.56V4.56Z"/><path class="cls-5" d="M26,93H16.57l1.71-28.18H30.05l3.52,14.34h.32l3.52-14.34H49.18L50.89,93H41.46l-.54-13.66h-.31L37.18,93h-6.9L26.81,79.36h-.27L26,93Zm35,0H51.48l7.3-28.18H72.72L80,93H70.51l-1-4.46H62L61,93ZM65.5,73.5l-1.85,7.89H67.8L66,73.5ZM106.31,93H96.39l-3.7-8.38H90.76V93h-9V64.84h14.2q9.7,0,9.7,9.87,0,6.78-4.2,8.93L106.31,93Zm-15.55-21v5.64h2.07a6,6,0,0,0,2.37-.34c.49-.22.74-.74.74-1.56V74a1.54,1.54,0,0,0-.74-1.56,6.24,6.24,0,0,0-2.37-.34Z"/></svg>