<svg id="Layer_1" data-name="Layer 1" xmlns="http://www.w3.org/2000/svg" viewBox="0 0 122.88 116.61"><defs><style>.cls-1{fill:gray;}.cls-2{fill:#fff;}.cls-2,.cls-3,.cls-4{fill-rule:evenodd;}.cls-3{fill:#ef4136;}.cls-4{fill:#c72b20;}.cls-5{fill:#1a1a1a;}</style></defs><title>may</title><path class="cls-1" d="M111.36,116.61H11.52A11.56,11.56,0,0,1,0,105.09V40H122.88v65.07a11.54,11.54,0,0,1-11.52,11.52Z"/><path class="cls-2" d="M12.75,112.92h97.38a9.09,9.09,0,0,0,9.06-9.06V44.94H3.69v58.92a9.08,9.08,0,0,0,9.06,9.06Z"/><path class="cls-3" d="M11.52,6.67h99.84a11.57,11.57,0,0,1,11.52,11.52V44.94H0V18.19A11.56,11.56,0,0,1,11.52,6.67Zm24.79,9.75A9.32,9.32,0,1,1,27,25.73a9.31,9.31,0,0,1,9.31-9.31Zm49.79,0a9.32,9.32,0,1,1-9.31,9.31,9.31,9.31,0,0,1,9.31-9.31Z"/><path class="cls-4" d="M86.1,14.63a11.11,11.11,0,1,1-7.85,3.26l.11-.1a11.06,11.06,0,0,1,7.74-3.16Zm0,1.79a9.32,9.32,0,1,1-9.31,9.31,9.31,9.31,0,0,1,9.31-9.31Z"/><path class="cls-4" d="M36.31,14.63a11.11,11.11,0,1,1-7.85,3.26l.11-.1a11.08,11.08,0,0,1,7.74-3.16Zm0,1.79A9.32,9.32,0,1,1,27,25.73a9.31,9.31,0,0,1,9.31-9.31Z"/><path class="cls-5" d="M80.54,4.56C80.54,2,83,0,86.1,0s5.56,2,5.56,4.56V25.77c0,2.51-2.48,4.56-5.56,4.56s-5.56-2-5.56-4.56V4.56Z"/><path class="cls-5" d="M30.75,4.56C30.75,2,33.24,0,36.31,0s5.56,2,5.56,4.56V25.77c0,2.51-2.48,4.56-5.56,4.56s-5.56-2-5.56-4.56V4.56Z"/><path class="cls-5" d="M27.46,93H18l1.72-28.18H31.52L35,79.18h.31l3.52-14.34H50.64L52.36,93H42.93l-.54-13.66h-.32L38.64,93H31.75L28.27,79.36H28L27.46,93Zm35.67,0H53.62l7.3-28.18H74.86L82.16,93H72.65l-1-4.46H64.17l-1,4.46ZM67.64,73.5l-1.85,7.89h4.15l-1.8-7.89Zm21.92-8.66L92,74.76h.32l2.52-9.92h10L96.73,85.36V93h-9V85.36L79.59,64.84Z"/></svg>