<svg id="Layer_1" data-name="Layer 1" xmlns="http://www.w3.org/2000/svg" viewBox="0 0 122.88 116.61"><defs><style>.cls-1{fill:gray;}.cls-2{fill:#fff;}.cls-2,.cls-3,.cls-4{fill-rule:evenodd;}.cls-3{fill:#ef4136;}.cls-4{fill:#c72b20;}.cls-5{fill:#1a1a1a;}</style></defs><title>november</title><path class="cls-1" d="M111.36,116.61H11.52A11.57,11.57,0,0,1,0,105.09V40H122.88v65.07a11.57,11.57,0,0,1-11.52,11.52Z"/><path class="cls-2" d="M12.75,112.92h97.38a9.1,9.1,0,0,0,9.06-9.06V44.94H3.69v58.92a9.08,9.08,0,0,0,9.06,9.06Z"/><path class="cls-3" d="M11.52,6.67h99.84a11.57,11.57,0,0,1,11.52,11.52V44.94H0V18.19A11.56,11.56,0,0,1,11.52,6.67Zm24.79,9.75A9.31,9.31,0,1,1,27,25.73a9.31,9.31,0,0,1,9.31-9.31Zm49.79,0a9.31,9.31,0,1,1-9.31,9.31,9.31,9.31,0,0,1,9.31-9.31Z"/><path class="cls-4" d="M86.1,14.63a11.1,11.1,0,1,1-7.85,3.25l.11-.1a11.09,11.09,0,0,1,7.74-3.15Zm0,1.79a9.31,9.31,0,1,1-9.31,9.31,9.31,9.31,0,0,1,9.31-9.31Z"/><path class="cls-4" d="M36.31,14.63a11.1,11.1,0,1,1-7.85,3.25l.11-.1a11.09,11.09,0,0,1,7.74-3.15Zm0,1.79A9.31,9.31,0,1,1,27,25.73a9.31,9.31,0,0,1,9.31-9.31Z"/><path class="cls-5" d="M80.54,4.56C80.54,2,83,0,86.1,0s5.56,2,5.56,4.56V25.77c0,2.51-2.49,4.55-5.56,4.55s-5.56-2-5.56-4.55V4.56Z"/><path class="cls-5" d="M30.75,4.56C30.75,2,33.24,0,36.31,0s5.56,2,5.56,4.56V25.77c0,2.51-2.48,4.55-5.56,4.55s-5.56-2-5.56-4.55V4.56Z"/><path class="cls-5" d="M35.89,93,29,83a4.51,4.51,0,0,1-.45-2.17h-.19V93h-9V64.84h8.47l6.9,10A4.49,4.49,0,0,1,35.17,77h.18V64.84h9V93ZM48.21,79q0-7.71,2.88-11.25t10.42-3.54q7.53,0,10.42,3.54T74.81,79a28.68,28.68,0,0,1-.61,6.45A11.67,11.67,0,0,1,72.11,90,8.43,8.43,0,0,1,68,92.79a19.92,19.92,0,0,1-6.5.91A19.81,19.81,0,0,1,55,92.79,8.37,8.37,0,0,1,50.91,90a11.83,11.83,0,0,1-2.1-4.55,29.35,29.35,0,0,1-.6-6.45Zm9.69-4.69V86h3.75a6.31,6.31,0,0,0,2.68-.43c.55-.29.83-.94.83-2V71.87H61.37a6,6,0,0,0-2.63.43c-.56.28-.84.94-.84,2ZM94,64.84h9.51L96.55,93H83.38l-7-28.18h9.52l3.83,17.9h.4L94,64.84Z"/></svg>