<svg id="Layer_1" data-name="Layer 1" xmlns="http://www.w3.org/2000/svg" viewBox="0 0 122.88 116.61"><defs><style>.cls-1{fill:gray;}.cls-2{fill:#fff;}.cls-2,.cls-3,.cls-4{fill-rule:evenodd;}.cls-3{fill:#ef4136;}.cls-4{fill:#c72b20;}.cls-5{fill:#1a1a1a;}</style></defs><title>october</title><path class="cls-1" d="M111.36,116.61H11.52A11.57,11.57,0,0,1,0,105.09V40H122.88v65.07a11.57,11.57,0,0,1-11.52,11.52Z"/><path class="cls-2" d="M12.75,112.92h97.38a9.1,9.1,0,0,0,9.06-9.06V44.94H3.69v58.92a9.08,9.08,0,0,0,9.06,9.06Z"/><path class="cls-3" d="M11.52,6.67h99.84a11.57,11.57,0,0,1,11.52,11.52V44.94H0V18.19A11.56,11.56,0,0,1,11.52,6.67Zm24.79,9.75A9.31,9.31,0,1,1,27,25.73a9.31,9.31,0,0,1,9.31-9.31Zm49.79,0a9.31,9.31,0,1,1-9.31,9.31,9.31,9.31,0,0,1,9.31-9.31Z"/><path class="cls-4" d="M86.1,14.63a11.1,11.1,0,1,1-7.85,3.25l.11-.1a11.09,11.09,0,0,1,7.74-3.15Zm0,1.79a9.31,9.31,0,1,1-9.31,9.31,9.31,9.31,0,0,1,9.31-9.31Z"/><path class="cls-4" d="M36.31,14.63a11.1,11.1,0,1,1-7.85,3.25l.11-.1a11.09,11.09,0,0,1,7.74-3.15Zm0,1.79A9.31,9.31,0,1,1,27,25.73a9.31,9.31,0,0,1,9.31-9.31Z"/><path class="cls-5" d="M80.54,4.56C80.54,2,83,0,86.1,0s5.56,2,5.56,4.56V25.77c0,2.51-2.49,4.55-5.56,4.55s-5.56-2-5.56-4.55V4.56Z"/><path class="cls-5" d="M30.75,4.56C30.75,2,33.24,0,36.31,0s5.56,2,5.56,4.56V25.77c0,2.51-2.48,4.55-5.56,4.55s-5.56-2-5.56-4.55V4.56Z"/><path class="cls-5" d="M22.88,79q0-7.71,2.89-11.25t10.42-3.54q7.53,0,10.41,3.54T49.49,79a28.68,28.68,0,0,1-.61,6.45A11.69,11.69,0,0,1,46.78,90a8.39,8.39,0,0,1-4.1,2.84,19.86,19.86,0,0,1-6.49.91,19.92,19.92,0,0,1-6.5-.91A8.39,8.39,0,0,1,25.59,90a11.83,11.83,0,0,1-2.1-4.55A29.28,29.28,0,0,1,22.88,79Zm9.7-4.69V86h3.74A6.25,6.25,0,0,0,39,85.56c.56-.29.84-.94.84-2V71.87H36.05a6,6,0,0,0-2.64.43c-.56.28-.83.94-.83,2ZM73.73,85l.67,7.58a18.76,18.76,0,0,1-7.12,1.17,21.24,21.24,0,0,1-6.88-.91A8.42,8.42,0,0,1,56.32,90a11.5,11.5,0,0,1-2.07-4.55A30,30,0,0,1,53.66,79a30.37,30.37,0,0,1,.59-6.47,11.5,11.5,0,0,1,2.07-4.58q2.9-3.74,10.6-3.74a28,28,0,0,1,4,.34,14,14,0,0,1,3.44.83l-1.35,6.9a25.64,25.64,0,0,0-5.36-.63,8.72,8.72,0,0,0-3.38.45,1.78,1.78,0,0,0-1,1.8V85.67a17.7,17.7,0,0,0,3.56.36A19.9,19.9,0,0,0,73.73,85ZM100,72.05H93.46V93h-9v-21H77.9V64.84H100v7.21Z"/></svg>