<svg id="Layer_1" data-name="Layer 1" xmlns="http://www.w3.org/2000/svg" viewBox="0 0 122.88 116.61"><defs><style>.cls-1{fill:gray;}.cls-2{fill:#fff;}.cls-2,.cls-3,.cls-4{fill-rule:evenodd;}.cls-3{fill:#ef4136;}.cls-4{fill:#c72b20;}.cls-5{fill:#1a1a1a;}</style></defs><title>september</title><path class="cls-1" d="M111.36,116.61H11.52A11.56,11.56,0,0,1,0,105.09V40H122.88v65.07a11.54,11.54,0,0,1-11.52,11.52Z"/><path class="cls-2" d="M12.75,112.92h97.38a9.09,9.09,0,0,0,9.06-9.06V44.94H3.69v58.92a9.08,9.08,0,0,0,9.06,9.06Z"/><path class="cls-3" d="M11.52,6.67h99.84a11.57,11.57,0,0,1,11.52,11.52V44.94H0V18.19A11.56,11.56,0,0,1,11.52,6.67Zm24.79,9.75A9.32,9.32,0,1,1,27,25.73a9.31,9.31,0,0,1,9.31-9.31Zm49.79,0a9.32,9.32,0,1,1-9.31,9.31,9.31,9.31,0,0,1,9.31-9.31Z"/><path class="cls-4" d="M86.1,14.63a11.11,11.11,0,1,1-7.85,3.26l.11-.1a11.06,11.06,0,0,1,7.74-3.16Zm0,1.79a9.32,9.32,0,1,1-9.31,9.31,9.31,9.31,0,0,1,9.31-9.31Z"/><path class="cls-4" d="M36.31,14.63a11.11,11.11,0,1,1-7.85,3.26l.11-.1a11.08,11.08,0,0,1,7.74-3.16Zm0,1.79A9.32,9.32,0,1,1,27,25.73a9.31,9.31,0,0,1,9.31-9.31Z"/><path class="cls-5" d="M80.54,4.56C80.54,2,83,0,86.1,0s5.56,2,5.56,4.56V25.77c0,2.51-2.48,4.56-5.56,4.56s-5.56-2-5.56-4.56V4.56Z"/><path class="cls-5" d="M30.75,4.56C30.75,2,33.24,0,36.31,0s5.56,2,5.56,4.56V25.77c0,2.51-2.48,4.56-5.56,4.56s-5.56-2-5.56-4.56V4.56Z"/><path class="cls-5" d="M23.63,92.53l1.26-7.44a31.21,31.21,0,0,0,7.47,1,42.35,42.35,0,0,0,5.34-.27V83.6l-4.06-.36q-5.51-.49-7.56-2.64t-2-6.34q0-5.78,2.5-7.93c1.66-1.45,4.5-2.17,8.5-2.17a47.69,47.69,0,0,1,10.82,1.13L44.73,72.5A44.24,44.24,0,0,0,38,71.83a34.55,34.55,0,0,0-4.28.22v2.21l3.25.32q5.91.58,8.16,2.82a8.34,8.34,0,0,1,2.26,6.2,13.27,13.27,0,0,1-.77,4.8,8.18,8.18,0,0,1-1.83,3,7,7,0,0,1-3,1.55,17.66,17.66,0,0,1-3.4.66c-1,.07-2.28.11-3.9.11a47.73,47.73,0,0,1-10.87-1.17ZM69.15,82.38h-9v3.43H71.18V93H51.12V64.84H71l-1.13,7.21h-9.7v3.79h9v6.54Zm21.09,3.84H84.37V93h-9V64.84h14.2q9.69,0,9.7,10.41,0,5.73-2.53,8.48a7.34,7.34,0,0,1-2.62,1.76,9.68,9.68,0,0,1-3.87.73ZM84.37,72.05v7h2.08a6,6,0,0,0,2.37-.34,1.54,1.54,0,0,0,.74-1.55V74a1.54,1.54,0,0,0-.74-1.56,6.24,6.24,0,0,0-2.37-.34Z"/></svg>